<?xml version="1.0" encoding="utf-8"?>
<!-- Generator: Adobe Illustrator 22.0.1, SVG Export Plug-In . SVG Version: 6.00 Build 0)  -->
<svg version="1.1" xmlns="http://www.w3.org/2000/svg" xmlns:xlink="http://www.w3.org/1999/xlink" x="0px" y="0px"
	 viewBox="0 0 5550 947" style="enable-background:new 0 0 5550 947;" xml:space="preserve">
<style type="text/css">
	.st0{fill:#FFFFFF;}
	.st1{fill:none;stroke:#FFFFFF;stroke-width:90;stroke-miterlimit:10;}
</style>
<g id="layer_x5F_1">
	<g>
		<path class="st0" d="M45,811L45,811c-24.8,0-45-20.3-45-45L0,46C0,21.2,20.2,1,45,1h0c24.7,0,45,20.2,45,45v720
			C90,790.8,69.8,811,45,811z"/>
	</g>
	<g>
		<path class="st0" d="M495,91H45C20.2,91,0,70.8,0,46v0C0,21.2,20.2,1,45,1h450c24.7,0,45,20.2,45,45v0C540,70.8,519.8,91,495,91z"
			/>
	</g>
	<g>
		<path class="st0" d="M495,811H45c-24.7,0-45-20.3-45-45v0c0-24.7,20.2-45,45-45h450c24.7,0,45,20.3,45,45v0
			C540,790.8,519.8,811,495,811z"/>
	</g>
	<path class="st0" d="M405,451H45c-24.7,0-45-20.2-45-45v0c0-24.8,20.2-45,45-45h360c24.8,0,45,20.2,45,45v0
		C450,430.8,429.8,451,405,451z"/>
</g>
<g id="layer_x5F_2">
	<path class="st1" d="M495,181c198.8,0,360,161.2,360,360S693.8,901,495,901"/>
	<path class="st0" d="M495,226h-90c-24.8,0-45-20.2-45-45v0c0-24.7,20.2-45,45-45h90c24.7,0,45,20.2,45,45v0
		C540,205.8,519.8,226,495,226z"/>
	<path class="st0" d="M495,946h-90c-24.8,0-45-20.3-45-45v0c0-24.7,20.2-45,45-45h90c24.7,0,45,20.3,45,45v0
		C540,925.8,519.8,946,495,946z"/>
	<path class="st0" d="M405,316L405,316c-24.8,0-45-20.2-45-45v-90c0-24.7,20.2-45,45-45h0c24.8,0,45,20.2,45,45v90
		C450,295.8,429.8,316,405,316z"/>
</g>
<g id="layer_x5F_3">
	<g>
		<path class="st0" d="M1746.1,495.4h-335.4c10.1,81.1,68.6,134.2,149,134.2c50.7,0,95.2-18.7,127.1-52.3l33.5,35.1
			c-39,42.9-96.7,67.9-165.4,67.9c-120.9,0-204.4-85-204.4-207.5c0-122.5,84.2-206.7,203.6-207.5
			C1686.8,265.3,1752.4,356.6,1746.1,495.4z M1691.5,447.1c-3.9-79.6-56.9-131-137.3-131c-78.8,0-134.9,51.5-143.5,131H1691.5z"/>
		<path class="st0" d="M2058.9,265.3v59.3c-86.6-1.6-140.4,52.3-147.4,134.9v218.4h-60.8V267.7h60.8v91.3
			C1938.8,298.9,1989.5,266.1,2058.9,265.3z"/>
		<path class="st0" d="M2210.2,149.9c0,23.4-17.2,41.3-39.8,41.3c-22.6,0-39.8-17.9-39.8-41.3c0-24.2,17.2-41.3,39.8-41.3
			C2193,108.5,2210.2,125.7,2210.2,149.9z M2200.9,267.7v410.3h-60.1V267.7H2200.9z"/>
		<path class="st0" d="M2413.8,99.2v578.8h-60.8V99.2H2413.8z"/>
		<path class="st0" d="M2635.3,149.9c0,23.4-17.2,41.3-39.8,41.3c-22.6,0-39.8-17.9-39.8-41.3c0-24.2,17.2-41.3,39.8-41.3
			C2618.1,108.5,2635.3,125.7,2635.3,149.9z M2625.9,267.7v410.3h-60.1V267.7H2625.9z"/>
		<path class="st0" d="M2879.4,316c-46,0-81.1,16.4-81.1,55.4c0,92.8,229.3,45.2,229.3,192.7c0,80.3-71.8,116.2-150.5,116.2
			c-58.5,0-118.6-20.3-157.6-57.7l23.4-44.5c35.1,32.8,88.1,52.3,136.5,52.3c48.4,0,87.4-18.7,88.1-60.1
			c2.3-99.8-227.8-49.1-227-194.2c0-78,67.9-111.5,142.7-111.5c49.1,0,96.7,14.8,131,37.4l-23.4,46.8
			C2959,328.5,2917.7,316,2879.4,316z"/>
		<path class="st0" d="M3505,99.2v578.8h-60.8v-88.1c-30.4,57.7-86.6,91.3-159.9,91.3c-117,0-198.1-86.6-198.1-209
			s81.1-207.5,197.3-207.5c73.3,0,130.3,33.5,160.7,92V99.2H3505z M3444.2,473.6c0-90.5-61.6-156-148.2-156
			c-87.4,0-149,65.5-149,156c0,90.5,61.6,155.2,149,155.2C3382.5,628.8,3444.2,564.1,3444.2,473.6z"/>
		<path class="st0" d="M4011.2,495.4h-335.4c10.1,81.1,68.6,134.2,149,134.2c50.7,0,95.2-18.7,127.1-52.3l33.5,35.1
			c-39,42.9-96.7,67.9-165.4,67.9c-120.9,0-204.4-85-204.4-207.5c0-122.5,84.2-206.7,203.6-207.5
			C3951.9,265.3,4017.4,356.6,4011.2,495.4z M3956.6,447.1c-3.9-79.6-56.9-131-137.3-131c-78.8,0-134.9,51.5-143.5,131H3956.6z"/>
		<path class="st0" d="M4221,316c-46,0-81.1,16.4-81.1,55.4c0,92.8,229.3,45.2,229.3,192.7c0,80.3-71.8,116.2-150.5,116.2
			c-58.5,0-118.6-20.3-157.6-57.7l23.4-44.5c35.1,32.8,88.1,52.3,136.5,52.3c48.4,0,87.4-18.7,88.1-60.1
			c2.3-99.8-227.8-49.1-227-194.2c0-78,67.9-111.5,142.7-111.5c49.1,0,96.7,14.8,131,37.4l-23.4,46.8
			C4300.6,328.5,4259.2,316,4221,316z"/>
		<path class="st0" d="M4538.5,149.9c0,23.4-17.2,41.3-39.8,41.3c-22.6,0-39.8-17.9-39.8-41.3c0-24.2,17.2-41.3,39.8-41.3
			C4521.3,108.5,4538.5,125.7,4538.5,149.9z M4529.1,267.7v410.3h-60.1V267.7H4529.1z"/>
		<path class="st0" d="M5035.3,267.7V635c0,120.1-81.9,195.8-206.7,195.8c-64.7-0.8-118.6-21.8-168.5-60.1l28.1-44.5
			c40.6,33.5,83.5,51.5,138.1,52.3c89.7,0,148.2-55.4,148.2-142v-62.4c-28.9,54.6-81.9,85.8-151.3,85.8
			c-110.8,0-187.2-81.9-187.2-198.1c0-115.4,75.7-195.8,185.6-196.6c70.2-0.8,123.2,31.2,152.9,85.8v-83.5H5035.3z M4974.5,463.4
			c0-85.8-58.5-147.4-140.4-147.4c-82.7,0-140.4,61.6-141.2,147.4c0.8,85,58.5,146.6,141.2,146.6
			C4916,610.1,4974.5,548.5,4974.5,463.4z"/>
		<path class="st0" d="M5549.3,425.2v252.7h-60.8V440.8c0-73.3-43.7-117-116.2-117c-81.1,0.8-131,54.6-138.1,134.2v220h-60.8V267.7
			h60.8v90.5c28.9-62.4,84.2-92,159.1-92.8C5491.6,265.3,5549.3,325.4,5549.3,425.2z"/>
	</g>
</g>
</svg>
